{
  "accessors": [
    {
      "bufferView": 2,
      "componentType": 5126,
      "count": 815,
      "max": [
        0.48721379041671753,
        1.7810853719711304,
        0.81944489479064941
      ],
      "min": [
        -0.85981512069702148,
        -0.74862611293792725,
        -0.73570817708969116
      ],
      "type": "VEC3"
    },
    {
      "bufferView": 2,
      "byteOffset": 9780,
      "componentType": 5126,
      "count": 815,
      "max": [
        1,
        1,
        0.99995160102844238
      ],
      "min": [
        -1,
        -0.9990684986114502,
        -0.99578869342803955
      ],
      "type": "VEC3"
    },
    {
      "bufferView": 1,
      "componentType": 5126,
      "count": 815,
      "max": [
        0.8750002384185791,
        1.0000002384185791
      ],
      "min": [
        0.12500002980232239,
        0
      ],
      "type": "VEC2"
    },
    {
      "bufferView": 0,
      "componentType": 5125,
      "count": 3840,
      "max": [
        814
      ],
      "min": [
        0
      ],
      "type": "SCALAR"
    },
    {
      "bufferView": 2,
      "byteOffset": 19560,
      "componentType": 5126,
      "count": 193,
      "max": [
        0.91666668653488159,
        1.6199584007263184,
        0.91666668653488159
      ],
      "min": [
        -0.91666668653488159,
        -1.7809932231903076,
        -0.91666668653488159
      ],
      "type": "VEC3"
    },
    {
      "bufferView": 2,
      "byteOffset": 21876,
      "componentType": 5126,
      "count": 193,
      "max": [
        1,
        1,
        1
      ],
      "min": [
        -1,
        -1,
        -1
      ],
      "type": "VEC3"
    },
    {
      "bufferView": 1,
      "byteOffset": 6520,
      "componentType": 5126,
      "count": 193,
      "max": [
        0.87500011920928955,
        1.0000001192092896
      ],
      "min": [
        0.12500001490116119,
        0
      ],
      "type": "VEC2"
    },
    {
      "bufferView": 0,
      "byteOffset": 15360,
      "componentType": 5125,
      "count": 960,
      "max": [
        192
      ],
      "min": [
        0
      ],
      "type": "SCALAR"
    },
    {
      "bufferView": 2,
      "byteOffset": 24192,
      "componentType": 5126,
      "count": 193,
      "max": [
        0.91666668653488159,
        1.6199584007263184,
        0.91666668653488159
      ],
      "min": [
        -0.91666668653488159,
        -1.7809932231903076,
        -0.91666668653488159
      ],
      "type": "VEC3"
    },
    {
      "bufferView": 2,
      "byteOffset": 26508,
      "componentType": 5126,
      "count": 193,
      "max": [
        1,
        1,
        1
      ],
      "min": [
        -1,
        -1,
        -1
      ],
      "type": "VEC3"
    },
    {
      "bufferView": 1,
      "byteOffset": 8064,
      "componentType": 5126,
      "count": 193,
      "max": [
        0.87500011920928955,
        1.0000001192092896
      ],
      "min": [
        0.12500001490116119,
        0
      ],
      "type": "VEC2"
    },
    {
      "bufferView": 0,
      "byteOffset": 19200,
      "componentType": 5125,
      "count": 960,
      "max": [
        192
      ],
      "min": [
        0
      ],
      "type": "SCALAR"
    },
    {
      "bufferView": 2,
      "byteOffset": 28824,
      "componentType": 5126,
      "count": 299,
      "max": [
        0.91989868879318237,
        1.746657133102417,
        1.7452003955841064
      ],
      "min": [
        -0.89808273315429688,
        -0.26225417852401733,
        -1.4162725210189819
      ],
      "type": "VEC3"
    },
    {
      "bufferView": 2,
      "byteOffset": 32412,
      "componentType": 5126,
      "count": 299,
      "max": [
        1,
        0.99999535083770752,
        0.99999117851257324
      ],
      "min": [
        -1,
        -0.99999535083770752,
        -0.99999117851257324
      ],
      "type": "VEC3"
    },
    {
      "bufferView": 1,
      "byteOffset": 9608,
      "componentType": 5126,
      "count": 299,
      "max": [
        0.87500011920928955,
        1.0000001192092896
      ],
      "min": [
        0.125,
        0
      ],
      "type": "VEC2"
    },
    {
      "bufferView": 0,
      "byteOffset": 23040,
      "componentType": 5125,
      "count": 1344,
      "max": [
        298
      ],
      "min": [
        0
      ],
      "type": "SCALAR"
    },
    {
      "bufferView": 2,
      "byteOffset": 36000,
      "componentType": 5126,
      "count": 293,
      "max": [
        1.9995847940444946,
        1.0175666809082031,
        1.3350694179534912
      ],
      "min": [
        -0.96517717838287354,
        -1.0175666809082031,
        -1.3350694179534912
      ],
      "type": "VEC3"
    },
    {
      "bufferView": 2,
      "byteOffset": 39516,
      "componentType": 5126,
      "count": 293,
      "max": [
        1,
        1,
        1
      ],
      "min": [
        -1,
        -1,
        -1
      ],
      "type": "VEC3"
    },
    {
      "bufferView": 1,
      "byteOffset": 12000,
      "componentType": 5126,
      "count": 293,
      "max": [
        0.87500011920928955,
        1.0000001192092896
      ],
      "min": [
        0.12500001490116119,
        0
      ],
      "type": "VEC2"
    },
    {
      "bufferView": 0,
      "byteOffset": 28416,
      "componentType": 5125,
      "count": 1344,
      "max": [
        292
      ],
      "min": [
        0
      ],
      "type": "SCALAR"
    }
  ],
  "asset": {
    "extras": {
      "author": "VikaRamdina (https://sketchfab.com/VikaRamdina)",
      "license": "CC-BY-4.0 (http://creativecommons.org/licenses/by/4.0/)",
      "source": "https://sketchfab.com/3d-models/among-us-48bd21c96d474fe69beddaa58d0afb80",
      "title": "Among Us"
    },
    "generator": "Sketchfab-9.42.0",
    "version": "2.0"
  },
  "bufferViews": [
    {
      "buffer": 0,
      "byteLength": 33792,
      "byteOffset": 0,
      "name": "floatBufferViews",
      "target": 34963
    },
    {
      "buffer": 0,
      "byteLength": 14344,
      "byteOffset": 33792,
      "byteStride": 8,
      "name": "floatBufferViews",
      "target": 34962
    },
    {
      "buffer": 0,
      "byteLength": 43032,
      "byteOffset": 48136,
      "byteStride": 12,
      "name": "floatBufferViews",
      "target": 34962
    }
  ],
  "buffers": [
    {
      "byteLength": 91168,
      "uri": "scene.bin"
    }
  ],
  "materials": [
    {
      "doubleSided": true,
      "emissiveFactor": [
        0,
        0,
        0
      ],
      "name": "Material.001",
      "pbrMetallicRoughness": {
        "baseColorFactor": [
          0.80000000000000004,
          0.029545999999999999,
          0.014225399999999999,
          1
        ],
        "metallicFactor": 0,
        "roughnessFactor": 0.72784800000000005
      }
    },
    {
      "doubleSided": true,
      "emissiveFactor": [
        0,
        0,
        0
      ],
      "name": "Material.003",
      "pbrMetallicRoughness": {
        "baseColorFactor": [
          0.80000000000000004,
          0.80000000000000004,
          0.80000000000000004,
          1
        ],
        "metallicFactor": 0.50632900000000003,
        "roughnessFactor": 0
      }
    }
  ],
  "meshes": [
    {
      "primitives": [
        {
          "attributes": {
            "NORMAL": 1,
            "POSITION": 0,
            "TEXCOORD_0": 2
          },
          "indices": 3,
          "material": 0,
          "mode": 4
        }
      ]
    },
    {
      "primitives": [
        {
          "attributes": {
            "NORMAL": 5,
            "POSITION": 4,
            "TEXCOORD_0": 6
          },
          "indices": 7,
          "material": 0,
          "mode": 4
        }
      ]
    },
    {
      "primitives": [
        {
          "attributes": {
            "NORMAL": 9,
            "POSITION": 8,
            "TEXCOORD_0": 10
          },
          "indices": 11,
          "material": 0,
          "mode": 4
        }
      ]
    },
    {
      "primitives": [
        {
          "attributes": {
            "NORMAL": 13,
            "POSITION": 12,
            "TEXCOORD_0": 14
          },
          "indices": 15,
          "material": 1,
          "mode": 4
        }
      ]
    },
    {
      "primitives": [
        {
          "attributes": {
            "NORMAL": 17,
            "POSITION": 16,
            "TEXCOORD_0": 18
          },
          "indices": 19,
          "material": 0,
          "mode": 4
        }
      ]
    }
  ],
  "nodes": [
    {
      "children": [
        1
      ],
      "name": "RootNode (gltf orientation matrix)",
      "rotation": [
        -0.70710678118654746,
        -0,
        -0,
        0.70710678118654757
      ]
    },
    {
      "children": [
        2
      ],
      "name": "RootNode (model correction matrix)"
    },
    {
      "children": [
        3
      ],
      "name": "root"
    },
    {
      "children": [
        4
      ],
      "matrix": [
        1,
        0,
        0,
        0,
        0,
        2.2204460492503131e-16,
        1,
        0,
        0,
        -1,
        2.2204460492503131e-16,
        0,
        0,
        0,
        0,
        1
      ],
      "name": "GLTF_SceneRootNode"
    },
    {
      "children": [
        5,
        6,
        8,
        10,
        12
      ],
      "matrix": [
        -0.10993971687305026,
        0,
        -0.99393825696261107,
        0,
        0,
        1,
        0,
        0,
        0.99393825696261107,
        0,
        -0.10993971687305026,
        0,
        8.3263454437255859,
        2.222468376159668,
        -4.8479995727539062,
        1
      ],
      "name": "Cube_5"
    },
    {
      "mesh": 0,
      "name": ""
    },
    {
      "children": [
        7
      ],
      "matrix": [
        0.31777352094650269,
        0,
        0,
        0,
        0,
        0.37051546573638916,
        0,
        0,
        0,
        0,
        0.31777352094650269,
        0,
        -0.23983311653137207,
        -0.64356732368469238,
        0.49882221221923828,
        1
      ],
      "name": "Cube.001_1"
    },
    {
      "mesh": 1,
      "name": ""
    },
    {
      "children": [
        9
      ],
      "matrix": [
        0.31777352094650269,
        0,
        0,
        0,
        0,
        0.37051546573638916,
        0,
        0,
        0,
        0,
        0.31777352094650269,
        0,
        -0.23983359336853027,
        -0.64356732368469238,
        -0.39807415008544922,
        1
      ],
      "name": "Cube.002_2"
    },
    {
      "mesh": 2,
      "name": ""
    },
    {
      "children": [
        11
      ],
      "matrix": [
        0.31775434775452327,
        0,
        -0.030775244169568568,
        0,
        0,
        0.3192412257194519,
        0,
        0,
        0.030775244169568568,
        0,
        0.31775434775452327,
        0,
        -0.67577028274536133,
        0.78816485404968262,
        -0.0050020217895507812,
        1
      ],
      "name": "Cube.003_3"
    },
    {
      "mesh": 3,
      "name": ""
    },
    {
      "children": [
        13
      ],
      "matrix": [
        0.2558615505695343,
        0,
        0,
        0,
        0,
        0.69366723299026489,
        0,
        0,
        0,
        0,
        0.45323780179023743,
        0,
        0.36798667907714844,
        0.38165736198425293,
        0.077791213989257812,
        1
      ],
      "name": "Cube.006_4"
    },
    {
      "mesh": 4,
      "name": ""
    }
  ],
  "scene": 0,
  "scenes": [
    {
      "name": "OSG_Scene",
      "nodes": [
        0
      ]
    }
  ]
}

